<?xml version="1.0" encoding="UTF-8"?>
<svg version="1.1" xmlns="http://www.w3.org/2000/svg" width="500" height="100">
<path d="M0 0 C66.33 0 132.66 0 201 0 C201 1.65 201 3.3 201 5 C135.99 5 70.98 5 4 5 C4 24.47 4 43.94 4 64 C69.01 64 134.02 64 201 64 C201 65.65 201 67.3 201 69 C134.67 69 68.34 69 0 69 C0 46.23 0 23.46 0 0 Z " fill="#E31937" transform="translate(22,16)"/>
<path d="M0 0 C2.660625 -0.061875 5.32125 -0.12375 8.0625 -0.1875 C8.8862915 -0.21481201 9.71008301 -0.24212402 10.55883789 -0.27026367 C15.79270079 -0.32855001 19.38558453 0.47823664 24 3 C26.45410358 6.68115537 26.23287843 8.65293598 26 13 C25.67 13.99 25.34 14.98 25 16 C25.66 16.99 26.32 17.98 27 19 C27.46362482 23.17262337 27.4494094 25.28714371 25.1875 28.875 C22.03594616 31.93650945 19.54285567 32.12447679 15.33203125 32.09765625 C14.52741455 32.09515869 13.72279785 32.09266113 12.89379883 32.09008789 C11.36855591 32.07643188 11.36855591 32.07643188 9.8125 32.0625 C4.9553125 32.0315625 4.9553125 32.0315625 0 32 C0 21.44 0 10.88 0 0 Z M7 7 C7 8.98 7 10.96 7 13 C8.43739513 13.02712066 9.87493863 13.04645067 11.3125 13.0625 C12.11300781 13.07410156 12.91351563 13.08570313 13.73828125 13.09765625 C16.16861334 13.09657855 16.16861334 13.09657855 19 12 C18.67 10.35 18.34 8.7 18 7 C14.37 7 10.74 7 7 7 Z M7 19 C7 20.98 7 22.96 7 25 C10.96 25 14.92 25 19 25 C19.33 23.68 19.66 22.36 20 21 C18.16262173 18.72783152 18.16262173 18.72783152 15.3984375 18.8046875 C14.40070312 18.82789062 13.40296875 18.85109375 12.375 18.875 C11.37210938 18.89304687 10.36921875 18.91109375 9.3359375 18.9296875 C8.17964844 18.96449219 8.17964844 18.96449219 7 19 Z " fill="#E31937" transform="translate(46,35)"/>
<path d="M0 0 C3.46236126 2.39067801 5.74528805 5.0530761 7.625 8.8125 C8.31015127 16.21438017 8.30778652 21.8640955 3.625 27.8125 C-0.77706859 31.48089049 -5.8996647 32.05375217 -11.45703125 31.66796875 C-16.56860989 30.77857361 -19.06546605 28.57902376 -22.24609375 24.56640625 C-25.14013988 20.07012005 -24.94523344 14.9602238 -24.375 9.8125 C-22.82885308 5.4945042 -20.37871764 2.13723927 -16.375 -0.1875 C-10.93882947 -1.99955684 -5.39284814 -1.8974836 0 0 Z M-16.375 8.8125 C-18.11965448 12.30180896 -17.93950552 16.00536977 -17.375 19.8125 C-15.38272296 22.86317422 -14.03817126 24.40676669 -10.4375 25.28515625 C-6.45118144 25.57960023 -4.74057772 25.07696048 -1.4375 22.6875 C0.85412265 19.49311691 1.54349905 17.72454555 1.625 13.8125 C0.82702648 10.4610112 -0.21382694 8.97815009 -2.625 6.5 C-8.23464925 3.05771523 -11.84624343 4.41313647 -16.375 8.8125 Z " fill="#E31937" transform="translate(151.375,36.1875)"/>
<path d="M0 0 C3.74573032 3.47165249 6.23140406 5.9458369 6.9453125 11.18359375 C7.19222884 17.77625993 6.67353782 22.15287088 2.5625 27.375 C-1.83956859 31.04339049 -6.9621647 31.61625217 -12.51953125 31.23046875 C-17.63110989 30.34107361 -20.12796605 28.14152376 -23.30859375 24.12890625 C-26.20169417 19.63408933 -26.1070292 14.5182016 -25.4375 9.375 C-23.75543345 5.05382903 -21.487831 2.17525219 -17.8125 -0.625 C-11.66187516 -2.44740736 -5.86318538 -2.77168764 0 0 Z M-17.4375 8.375 C-19.02627137 11.55254275 -18.71258393 14.90894243 -18.4375 18.375 C-17.26736774 21.7953866 -16.56439277 22.29040482 -13.4375 24.375 C-7.53344237 25.05363934 -7.53344237 25.05363934 -2.5 22.25 C-0.20837735 19.05561691 0.48099905 17.28704555 0.5625 13.375 C-0.23547352 10.0235112 -1.27632694 8.54065009 -3.6875 6.0625 C-9.29714925 2.62021523 -12.90874343 3.97563647 -17.4375 8.375 Z " fill="#E31937" transform="translate(109.4375,36.625)"/>
<path d="M0 0 C0.56074219 0.52980469 1.12148438 1.05960938 1.69921875 1.60546875 C1.69921875 2.59546875 1.69921875 3.58546875 1.69921875 4.60546875 C-0.98828125 5.79296875 -0.98828125 5.79296875 -4.30078125 6.60546875 C-5.98574423 5.63661503 -7.65256881 4.63560152 -9.30078125 3.60546875 C-12.53634324 3.82396084 -12.53634324 3.82396084 -15.30078125 4.60546875 C-15.30078125 5.59546875 -15.30078125 6.58546875 -15.30078125 7.60546875 C-14.49253906 7.78722656 -13.68429687 7.96898437 -12.8515625 8.15625 C-11.78292969 8.40761719 -10.71429688 8.65898438 -9.61328125 8.91796875 C-8.55753906 9.16160156 -7.50179688 9.40523437 -6.4140625 9.65625 C-3.29806636 10.6062965 -0.96195552 11.74024931 1.69921875 13.60546875 C3.30886662 16.82476448 3.30608117 20.12434587 2.69921875 23.60546875 C0.16468218 26.8250152 -1.4137543 28.3097931 -5.30078125 29.60546875 C-11.55041784 30.11564317 -16.96531056 30.29925615 -22.30078125 26.60546875 C-24.30078125 23.60546875 -24.30078125 23.60546875 -24.30078125 20.60546875 C-22.32078125 19.94546875 -20.34078125 19.28546875 -18.30078125 18.60546875 C-17.64078125 19.59546875 -16.98078125 20.58546875 -16.30078125 21.60546875 C-14.17701421 22.22371592 -14.17701421 22.22371592 -11.80078125 22.35546875 C-10.6096875 22.47148438 -10.6096875 22.47148438 -9.39453125 22.58984375 C-7.24024014 22.76431311 -7.24024014 22.76431311 -5.30078125 21.60546875 C-4.64864833 19.5808362 -4.64864833 19.5808362 -4.30078125 17.60546875 C-5.72970703 17.36763672 -5.72970703 17.36763672 -7.1875 17.125 C-8.44175781 16.89167969 -9.69601562 16.65835938 -10.98828125 16.41796875 C-12.85033203 16.08732422 -12.85033203 16.08732422 -14.75 15.75 C-18.83394171 14.43361395 -20.62550784 12.91938826 -23.30078125 9.60546875 C-24.00954243 5.82540914 -23.63609787 4.19562599 -21.73828125 0.85546875 C-15.57967915 -4.82939472 -6.91164221 -4.18922966 0 0 Z " fill="#FFFFFF" transform="translate(474.30078125,37.39453125)"/>
<path d="M0 0 C7.92 0 15.84 0 24 0 C24 1.98 24 3.96 24 6 C18.39 6 12.78 6 7 6 C7 7.98 7 9.96 7 12 C12.28 12 17.56 12 23 12 C23 13.98 23 15.96 23 18 C17.72 18 12.44 18 7 18 C7 19.98 7 21.96 7 24 C12.61 24 18.22 24 24 24 C24 25.98 24 27.96 24 30 C16.08 30 8.16 30 0 30 C0 20.1 0 10.2 0 0 Z " fill="#FFFFFF" transform="translate(378,36)"/>
<path d="M0 0 C2.31 0 4.62 0 7 0 C7.33 3.63 7.66 7.26 8 11 C9.093125 9.741875 10.18625 8.48375 11.3125 7.1875 C12.53235217 5.7835192 13.76122932 4.38731705 15 3 C15.4846875 2.4225 15.969375 1.845 16.46875 1.25 C19.28874535 -1.05203702 22.50730166 -0.17177205 26 0 C24.38462556 3.89917968 21.72075127 6.71293772 18.875 9.75 C18.40707031 10.25660156 17.93914062 10.76320313 17.45703125 11.28515625 C16.30873459 12.52719141 15.15491328 13.76411494 14 15 C15.59829623 19.06313862 18.52453038 21.68191462 21.625 24.625 C23.47207201 26.37971841 25.24397039 28.15000225 27 30 C27 30.66 27 31.32 27 32 C23.86647795 32.51159544 21.11932013 32.65957008 18 32 C15.16300836 29.68177255 13.16475114 26.93306956 11 24 C10.01 23.01 9.02 22.02 8 21 C7.67 24.63 7.34 28.26 7 32 C4.69 32 2.38 32 0 32 C0 21.44 0 10.88 0 0 Z " fill="#E31937" transform="translate(171,35)"/>
<path d="M0 0 C1.98 0 3.96 0 6 0 C6.33 3.3 6.66 6.6 7 10 C7.54527344 9.278125 8.09054687 8.55625 8.65234375 7.8125 C14.73833767 0.32204594 14.73833767 0.32204594 18.6015625 -0.6640625 C21.0625 -0.625 21.0625 -0.625 25 0 C21.19695186 5.19210472 17.23841458 10.15609762 13 15 C13.9384375 15.91523437 14.876875 16.83046875 15.84375 17.7734375 C17.06276041 18.97369391 18.28149629 20.17422919 19.5 21.375 C20.12003906 21.97828125 20.74007813 22.5815625 21.37890625 23.203125 C21.96542969 23.78320312 22.55195313 24.36328125 23.15625 24.9609375 C23.70087891 25.49509277 24.24550781 26.02924805 24.80664062 26.57958984 C26 28 26 28 26 30 C22.36710937 30.64454511 20.49192903 30.95606256 17 30 C13.18182934 26.68880636 10.09601224 22.98151052 7 19 C6.67 22.63 6.34 26.26 6 30 C4.02 30 2.04 30 0 30 C0 20.1 0 10.2 0 0 Z " fill="#FFFFFF" transform="translate(341,36)"/>
<path d="M0 0 C0.78375 0.495 1.5675 0.99 2.375 1.5 C2.375 2.82 2.375 4.14 2.375 5.5 C0.6875 6.625 0.6875 6.625 -1.625 7.5 C-2.388125 7.190625 -3.15125 6.88125 -3.9375 6.5625 C-7.54804238 5.13507627 -9.89057394 5.6009715 -13.625 6.5 C-16.51979637 8.23687782 -16.63835881 9.55152682 -17.5 12.875 C-17.64033978 16.94485353 -17.19472167 18.39861178 -14.625 21.5 C-11.89365053 23.64606029 -10.65033499 23.50226205 -7.125 23.1875 C-4.59575899 22.6906848 -2.10563884 22.19457888 0.375 21.5 C1.695 23.15 3.015 24.8 4.375 26.5 C-1.76284685 30.13724258 -6.48653564 31.48213771 -13.625 30.5 C-18.99287898 28.61130184 -22.08491584 25.58016831 -24.625 20.5 C-25.13728015 14.89011251 -25.38756033 10.05235496 -22.875 4.9375 C-16.53717903 -1.92847271 -8.7314794 -3.61302596 0 0 Z " fill="#FFFFFF" transform="translate(325.625,36.5)"/>
<path d="M0 0 C8.58 0 17.16 0 26 0 C26 1.98 26 3.96 26 6 C23.03 6 20.06 6 17 6 C17 13.92 17 21.84 17 30 C14.69 30 12.38 30 10 30 C10 22.08 10 14.16 10 6 C6.7 6 3.4 6 0 6 C0 4.02 0 2.04 0 0 Z " fill="#FFFFFF" transform="translate(414,36)"/>
<path d="M0 0 C8.58 0 17.16 0 26 0 C26 1.98 26 3.96 26 6 C23.03 6 20.06 6 17 6 C17 13.92 17 21.84 17 30 C14.69 30 12.38 30 10 30 C10 22.08 10 14.16 10 6 C6.7 6 3.4 6 0 6 C0 4.02 0 2.04 0 0 Z " fill="#FFFFFF" transform="translate(244,36)"/>
<path d="M0 0 C1.98 0 3.96 0 6 0 C6 9.9 6 19.8 6 30 C4.02 30 2.04 30 0 30 C0 20.1 0 10.2 0 0 Z " fill="#FFFFFF" transform="translate(282,36)"/>
<path d="M0 0 C1.65 0 3.3 0 5 0 C5 2.64 5 5.28 5 8 C3.35 8 1.7 8 0 8 C0 5.36 0 2.72 0 0 Z " fill="#E31937" transform="translate(218,67)"/>
<path d="M0 0 C1.65 0 3.3 0 5 0 C5 2.64 5 5.28 5 8 C3.35 8 1.7 8 0 8 C0 5.36 0 2.72 0 0 Z " fill="#E31937" transform="translate(218,53)"/>
<path d="M0 0 C1.65 0 3.3 0 5 0 C5 2.64 5 5.28 5 8 C3.35 8 1.7 8 0 8 C0 5.36 0 2.72 0 0 Z " fill="#E31937" transform="translate(218,40)"/>
<path d="M0 0 C1.65 0 3.3 0 5 0 C5 2.64 5 5.28 5 8 C3.35 8 1.7 8 0 8 C0 5.36 0 2.72 0 0 Z " fill="#E31937" transform="translate(218,27)"/>
</svg>
