<svg width="181" height="26" viewBox="0 0 181 26" fill="none" xmlns="http://www.w3.org/2000/svg">
<path fill-rule="evenodd" clip-rule="evenodd" d="M12.4176 22.2104H3.54788V13.3408C3.54788 12.7337 3.60898 12.1404 3.72527 11.5668C3.99136 10.2561 4.5472 9.05177 5.31985 8.01894C5.8264 7.34682 6.42363 6.74959 7.09575 6.24303C8.12858 5.47038 9.33289 4.91455 10.6436 4.64846C11.2172 4.53217 11.8105 4.47106 12.4176 4.47106H21.2873C23.2467 4.47106 24.8351 2.88263 24.8351 0.923187H12.4176C11.8144 0.923187 11.2231 0.966549 10.6436 1.0513C9.39005 1.2287 8.19757 1.59334 7.09575 2.11764C5.84414 2.71289 4.70685 3.51117 3.72724 4.47106C3.66614 4.53019 3.60701 4.58933 3.54788 4.65043C2.58798 5.63004 1.78971 6.76733 1.19445 8.01894C0.670154 9.12075 0.305512 10.3132 0.128118 11.5668C0.0433632 12.1463 0 12.7376 0 13.3408V25.7583H12.4176C13.0207 25.7583 13.612 25.715 14.1915 25.6302C15.4451 25.4528 16.6376 25.0882 17.7394 24.5639C18.991 23.9686 20.1283 23.1703 21.1079 22.2104C21.169 22.1513 21.2281 22.0922 21.2873 22.0311C22.2472 21.0515 23.0454 19.9142 23.6407 18.6626H19.5153C19.0087 19.3347 18.4115 19.9319 17.7394 20.4385C16.7066 21.2111 15.5023 21.767 14.1915 22.0331C13.6179 22.1493 13.0246 22.2104 12.4176 22.2104ZM8.08127 12.1581C7.42813 12.1581 6.89865 12.6876 6.89865 13.3408C6.89865 13.9939 7.42813 14.5234 8.08127 14.5234C8.73442 14.5234 9.2639 13.9939 9.2639 13.3408C9.2639 12.6876 8.73442 12.1581 8.08127 12.1581ZM11.2349 13.3408C11.2349 12.6876 11.7644 12.1581 12.4176 12.1581C13.0707 12.1581 13.6002 12.6876 13.6002 13.3408C13.6002 13.9939 13.0707 14.5234 12.4176 14.5234C11.7644 14.5234 11.2349 13.9939 11.2349 13.3408ZM16.7539 12.1581C16.1007 12.1581 15.5712 12.6876 15.5712 13.3408C15.5712 13.9939 16.1007 14.5234 16.7539 14.5234C17.407 14.5234 17.9365 13.9939 17.9365 13.3408C17.9365 12.6876 17.407 12.1581 16.7539 12.1581Z" fill="#35FF9E"/>
<path d="M50.0661 10.9258C49.9746 9.78262 49.4411 8.86044 48.4656 8.15927C47.4901 7.44287 46.0953 7.08466 44.2815 7.08466C42.3456 7.08466 40.7909 7.59529 39.6172 8.61656C38.4587 9.63782 37.8795 11.1468 37.8795 13.1436C37.8795 15.1404 38.4587 16.6495 39.6172 17.6707C40.7909 18.692 42.3456 19.2026 44.2815 19.2026C46.1258 19.2026 47.5358 18.8292 48.5113 18.0823C49.5021 17.3354 50.028 16.3141 50.0889 15.0185H53.5186C53.4881 16.3903 53.0918 17.5793 52.3296 18.5853C51.5827 19.5913 50.5234 20.3687 49.1515 20.9174C47.7797 21.4509 46.1563 21.7177 44.2815 21.7177C42.4066 21.7177 40.7375 21.3976 39.2742 20.7574C37.8262 20.1172 36.6906 19.1569 35.8675 17.8765C35.0444 16.5809 34.6328 15.0033 34.6328 13.1436C34.6328 11.284 35.0444 9.71403 35.8675 8.43364C36.6906 7.13801 37.8262 6.1701 39.2742 5.5299C40.7375 4.88971 42.4066 4.56961 44.2815 4.56961C46.1411 4.56961 47.7416 4.83636 49.0829 5.36985C50.4395 5.90335 51.4913 6.65024 52.2382 7.61054C52.9851 8.55559 53.3966 9.66068 53.4728 10.9258H50.0661Z" fill="white"/>
<path d="M69.6489 4.56961C71.5999 4.56961 73.3148 4.88971 74.7933 5.5299C76.2871 6.1701 77.4532 7.13039 78.2915 8.41078C79.1299 9.69117 79.549 11.2688 79.549 13.1436C79.549 15.0185 79.1299 16.5961 78.2915 17.8765C77.4532 19.1569 76.2871 20.1172 74.7933 20.7574C73.3148 21.3976 71.5999 21.7177 69.6489 21.7177C67.6826 21.7177 65.9525 21.3976 64.4587 20.7574C62.9802 20.1172 61.8217 19.1569 60.9834 17.8765C60.145 16.5961 59.7259 15.0185 59.7259 13.1436C59.7259 11.2688 60.145 9.69117 60.9834 8.41078C61.8217 7.13039 62.9802 6.1701 64.4587 5.5299C65.9525 4.88971 67.6826 4.56961 69.6489 4.56961ZM69.6489 19.2026C71.7066 19.2026 73.33 18.6996 74.5189 17.6936C75.7231 16.6723 76.3252 15.1557 76.3252 13.1436C76.3252 11.1316 75.7231 9.62258 74.5189 8.61656C73.33 7.59529 71.7066 7.08466 69.6489 7.08466C67.5911 7.08466 65.9601 7.59529 64.756 8.61656C63.567 9.62258 62.9726 11.1316 62.9726 13.1436C62.9726 15.1557 63.567 16.6723 64.756 17.6936C65.9601 18.6996 67.5911 19.2026 69.6489 19.2026Z" fill="white"/>
<path d="M103.979 4.98116V21.3061H101.052V14.1725H89.4373V21.3061H86.5107V4.98116H89.4373V11.6575H101.052V4.98116H103.979Z" fill="white"/>
<path d="M120.817 4.56961C122.768 4.56961 124.483 4.88971 125.962 5.5299C127.456 6.1701 128.622 7.13039 129.46 8.41078C130.298 9.69117 130.718 11.2688 130.718 13.1436C130.718 15.0185 130.298 16.5961 129.46 17.8765C128.622 19.1569 127.456 20.1172 125.962 20.7574C124.483 21.3976 122.768 21.7177 120.817 21.7177C118.851 21.7177 117.121 21.3976 115.627 20.7574C114.149 20.1172 112.99 19.1569 112.152 17.8765C111.314 16.5961 110.894 15.0185 110.894 13.1436C110.894 11.2688 111.314 9.69117 112.152 8.41078C112.99 7.13039 114.149 6.1701 115.627 5.5299C117.121 4.88971 118.851 4.56961 120.817 4.56961ZM120.817 19.2026C122.875 19.2026 124.499 18.6996 125.687 17.6936C126.892 16.6723 127.494 15.1557 127.494 13.1436C127.494 11.1316 126.892 9.62258 125.687 8.61656C124.499 7.59529 122.875 7.08466 120.817 7.08466C118.76 7.08466 117.129 7.59529 115.924 8.61656C114.736 9.62258 114.141 11.1316 114.141 13.1436C114.141 15.1557 114.736 16.6723 115.924 17.6936C117.129 18.6996 118.76 19.2026 120.817 19.2026Z" fill="white"/>
<path d="M155.559 21.3061H152.129L148.105 14.6527H140.606V21.3061H137.679V4.98116H149.569C151.535 4.98116 152.968 5.36985 153.867 6.14723C154.782 6.90937 155.239 8.13641 155.239 9.82835C155.239 12.4044 153.936 13.9134 151.329 14.3554V14.4469L155.559 21.3061ZM149.317 12.1376C150.232 12.1376 150.902 11.9547 151.329 11.5889C151.756 11.2231 151.969 10.6362 151.969 9.82835C151.969 9.03573 151.756 8.45651 151.329 8.09068C150.902 7.72486 150.232 7.54194 149.317 7.54194H140.606V12.1376H149.317Z" fill="white"/>
<path d="M175.526 17.6707H165.488L163.659 21.3061H160.458L168.827 4.98116H172.256L180.624 21.3061H177.332L175.526 17.6707ZM174.291 15.2014L170.541 7.77059H170.45L166.723 15.2014H174.291Z" fill="white"/>
</svg>
