<?xml version="1.0" encoding="utf-8"?>
<!-- Generator: Adobe Illustrator 28.1.0, SVG Export Plug-In . SVG Version: 6.00 Build 0)  -->
<svg version="1.1" id="Vrstva_1" xmlns="http://www.w3.org/2000/svg" xmlns:xlink="http://www.w3.org/1999/xlink" x="0px" y="0px"
	 viewBox="0 0 468.5 200" style="enable-background:new 0 0 468.5 200;" xml:space="preserve">
<style type="text/css">
	.st0{fill:#FFDC00;}
	.st1{fill:#163239;}
	.st2{fill:#E20613;}
</style>
<g>
	<g>
		<rect y="0" class="st0" width="468.5" height="200"/>
		<g>
			<g>
				<path class="st1" d="M96,106.9c12.1,4,15.6,5.1,27,5.1c8.4,0,13.1-4.1,13.1-9.7c0-6.3-5.6-7.7-12.1-9.5
					c-13.1-3.1-43.4-7.6-43.4-35.7c0-18.1,13.1-34.2,44.1-34.2c11.8,0,26.3,3.2,37.9,7.8l-16.2,19.3c-12-3.7-13.3-4.8-24.6-4.8
					c-7.9,0-11.9,3.7-11.9,8.7c0,5.6,4.5,7.4,10.3,9c13.6,3.4,45,8.2,45,36.3c0,20.2-15.3,35.5-46.5,35.5c-11.9,0-27-3.2-38.7-8.3
					L96,106.9z"/>
				<polygon class="st1" points="230,24.2 257.2,24.2 257.5,80.9 280.2,53.9 311.8,53.9 282.9,85.7 315.7,132.7 282.5,132.7 
					265.2,105.4 257.5,110.6 257.5,132.7 230.2,132.7 				"/>
				<path class="st1" d="M358.3,52c24.2,0,42,16.4,42,41.2s-17.8,41.2-42,41.2c-24.4,0-42.1-16.4-42.1-41.2S334,52,358.3,52
					 M358.3,115.6c8.2,0,13.9-8.5,13.9-22.4s-5.6-22.5-13.9-22.5c-8.4,0-14,8.7-14,22.5C344.3,107,350,115.6,358.3,115.6"/>
				<rect x="181.8" y="24.4" class="st1" width="28.4" height="27.3"/>
				<rect x="180" y="61.8" class="st2" width="32" height="70.8"/>
			</g>
			<g>
				<g>
					<path class="st1" d="M44,166.9l-3.8,3.9v6.1h-4.4V153h4.4v12.2L52,153h5l-10,10.7l10.6,13.2h-5.2L44,166.9z"/>
					<path class="st1" d="M58.1,164.9c0-7,5.5-12.2,12.8-12.2c7.4,0,12.8,5.2,12.8,12.2c0,7.1-5.5,12.2-12.8,12.2
						C63.6,177.2,58.1,172,58.1,164.9z M79.3,164.9c0-4.9-3.6-8.4-8.4-8.4s-8.4,3.5-8.4,8.4c0,4.9,3.6,8.4,8.4,8.4
						C75.7,173.3,79.3,169.8,79.3,164.9z"/>
					<path class="st1" d="M88.2,166.5V153h4.4v13.3c0,4.9,2.2,7,6.1,7s6.1-2.1,6.1-7V153h4.3v13.5c0,6.9-4,10.7-10.4,10.7
						C92.2,177.2,88.2,173.4,88.2,166.5z"/>
					<path class="st1" d="M135.3,161.5c0,5.2-3.9,8.5-10.1,8.5h-5.4v6.8h-4.4V153h9.8C131.4,153,135.3,156.2,135.3,161.5z
						 M130.8,161.5c0-3-2-4.7-5.9-4.7h-5.2v9.4h5.2C128.8,166.2,130.8,164.5,130.8,161.5z"/>
					<path class="st1" d="M157.6,173.1v3.8h-17.9V153h17.4v3.8h-13v6.2h11.5v3.7h-11.5v6.6H157.6z"/>
					<path class="st1" d="M162.5,153h4.4v20.1h12.4v3.8h-16.9V153z"/>
					<path class="st1" d="M204.1,153v23.8h-3.7l-13.2-16.1v16.2h-4.3V153h3.7l13.1,16.2V153H204.1z"/>
					<path class="st1" d="M220.8,168.4v8.4h-4.4v-8.4L207,153h4.7l6.9,11.7l7-11.7h4.3L220.8,168.4z"/>
				</g>
			</g>
			<g>
				<path class="st1" d="M269.6,166.9l-3.8,3.9v6.1h-4.4V153h4.4v12.2l11.8-12.2h5l-10,10.7l10.6,13.2h-5.2L269.6,166.9z"/>
				<path class="st1" d="M285.7,166.5V153h4.4v13.3c0,4.9,2.2,7,6.1,7s6.1-2.1,6.1-7V153h4.3v13.5c0,6.9-4,10.7-10.4,10.7
					C289.5,177.2,285.7,173.4,285.7,166.5z"/>
				<path class="st1" d="M311,164.9c0-7.1,5.5-12.2,12.8-12.2c3.9,0,7.2,1.3,9.4,4l-2.9,2.7c-1.7-1.8-3.9-2.8-6.4-2.8
					c-4.9,0-8.5,3.5-8.5,8.4c0,4.9,3.6,8.4,8.5,8.4c2.5,0,4.6-1,6.4-2.8l2.9,2.7c-2.2,2.6-5.6,4-9.4,4
					C316.5,177.2,311,172.1,311,164.9z"/>
				<path class="st1" d="M358.7,153v23.8h-4.4v-10.2h-12.3v10.2h-4.4V153h4.4v9.8h12.3V153H358.7z"/>
				<path class="st1" d="M375.3,168.4v8.4h-4.4v-8.4l-9.3-15.5h4.7l6.9,11.7l7-11.7h4.3L375.3,168.4z"/>
				<path class="st1" d="M408.4,153v23.8h-3.7l-13.1-16.1v16.2h-4.4V153h3.7l13.1,16.2V153H408.4z"/>
				<path class="st1" d="M432.7,173.1v3.8h-17.9V153h17.4v3.8h-13v6.2h11.5v3.7h-11.5v6.6H432.7z M421.6,151.1l-4.5-4.6h3.5l3,2.5
					l3-2.5h3.5l-4.5,4.6H421.6z"/>
			</g>
			<rect x="241.2" y="161.1" class="st1" width="6.8" height="6.8"/>
		</g>
	</g>
</g>
</svg>
